<?xml version="1.0" encoding="UTF-8"?>
<svg width="24px" height="24px" enable-background="new 0 0 24 24" fill="#FFFFFF" version="1.1" viewBox="0 0 24 24" xmlns="http://www.w3.org/2000/svg">
 <rect width="24" height="24" fill="none"/>
 <g fill="#008000">
  <path d="m23 11.99-2.44-2.79 0.34-3.69-3.61-0.82-1.89-3.19-3.4 1.46-3.4-1.46-1.89 3.19-3.61 0.81 0.34 3.7-2.44 2.79 2.44 2.79-0.34 3.7 3.61 0.82 1.89 3.2 3.4-1.47 3.4 1.46 1.89-3.19 3.61-0.82-0.34-3.69 2.44-2.8zm-3.95 1.48-0.56 0.65 0.08 0.85 0.18 1.95-1.9 0.43-0.84 0.19-0.44 0.74-0.99 1.68-1.78-0.77-0.8-0.34-0.79 0.34-1.78 0.77-0.99-1.67-0.44-0.74-0.84-0.19-1.9-0.43 0.18-1.96 0.08-0.85-0.56-0.65-1.29-1.47 1.29-1.48 0.56-0.65-0.09-0.86-0.18-1.94 1.9-0.43 0.84-0.19 0.44-0.74 0.99-1.68 1.78 0.77 0.8 0.34 0.79-0.34 1.78-0.77 0.99 1.68 0.44 0.74 0.84 0.19 1.9 0.43-0.18 1.95-0.08 0.85 0.56 0.65 1.29 1.47-1.28 1.48z"/>
  <polygon points="10.09 13.75 7.77 11.42 6.29 12.91 10.09 16.72 17.43 9.36 15.95 7.87"/>
 </g>
</svg>
