<?xml version="1.0" encoding="UTF-8" standalone="no"?>
<!-- Created with Inkscape (http://www.inkscape.org/) -->

<svg
   width="15.478127mm"
   height="15.464897mm"
   viewBox="0 0 15.478127 15.464897"
   version="1.1"
   id="svg5"
   xml:space="preserve"
   xmlns="http://www.w3.org/2000/svg"
   xmlns:svg="http://www.w3.org/2000/svg"><defs
     id="defs2" /><g
     id="layer1"
     transform="translate(-95.114229,-114.3873)"><g
       id="main"
       transform="matrix(0.26458333,0,0,0.26458333,95.12746,114.39253)">
	<g
   transform="translate(0,-1)"
   id="g141">
			<g
   id="Group-15"
   transform="translate(0,0.83028)">
				<path
   id="Fill-9"
   class="st0"
   d="M 11.2,47.8 29.5,55.2 47.7,47.4 55,29.1 47.2,10.9 28.9,3.6 10.7,11.4 3.4,29.7 Z m 18.3,10.8 c -0.2,0 -0.4,0 -0.6,-0.1 L 9.3,50.6 C 8.9,50.4 8.6,50.1 8.4,49.7 L 0.1,30.3 C -0.1,29.9 -0.1,29.5 0.1,29 L 8,9.5 C 8.2,9.1 8.5,8.8 8.9,8.6 L 28.3,0.3 c 0.4,-0.2 0.8,-0.2 1.3,0 L 49.2,8.2 C 49.5,8.3 49.8,8.6 50,9 l 8.3,19.4 c 0.2,0.4 0.2,0.8 0,1.3 l -7.9,19.6 c -0.2,0.4 -0.5,0.7 -0.9,0.9 l -19.4,8.3 c -0.1,0.1 -0.4,0.1 -0.6,0.1 z" />
				
			</g>
		</g>
<text
   xml:space="preserve"
   style="font-size:53.3333px;font-family:Chiller;-inkscape-font-specification:'Chiller, Normal';fill:#aa4400;fill-opacity:0.8;stroke:#000000"
   x="20.237764"
   y="44.329029"
   id="text373"><tspan
     x="20.237764"
     y="44.329029"
     id="tspan425"
     style="font-style:normal;font-variant:normal;font-weight:normal;font-stretch:normal;font-size:53.3333px;font-family:Chiller;-inkscape-font-specification:'Chiller, Normal';font-variant-ligatures:normal;font-variant-caps:normal;font-variant-numeric:normal;font-variant-east-asian:normal;fill:#ff0000">?</tspan></text></g></g><style
     type="text/css"
     id="style132">
	.st0{fill-rule:evenodd;clip-rule:evenodd;}
</style></svg>
