<?xml version="1.0" encoding="UTF-8" standalone="no"?>
<svg
   height="24px"
   viewBox="0 0 24 24"
   width="24px"
   fill="#FFFFFF"
   version="1.1"
   id="svg6"
   xml:space="preserve"
   xmlns="http://www.w3.org/2000/svg"
   xmlns:svg="http://www.w3.org/2000/svg"><defs
     id="defs10" /><path
     d="m 19.43,12.98 c 0.04,-0.32 0.07,-0.64 0.07,-0.98 0,-0.34 -0.03,-0.66 -0.07,-0.98 l 2.11,-1.65 c 0.19,-0.15 0.24,-0.42 0.12,-0.64 l -2,-3.46 C 19.57,5.11 19.4,5.02 19.22,5.02 c -0.06,0 -0.12,0.01 -0.17,0.03 l -2.49,1 C 16.04,5.65 15.48,5.32 14.87,5.07 L 14.49,2.42 C 14.46,2.18 14.25,2 14,2 H 10 C 9.75,2 9.54,2.18 9.51,2.42 L 9.13,5.07 C 8.52,5.32 7.96,5.66 7.44,6.05 l -2.49,-1 C 4.89,5.03 4.83,5.02 4.77,5.02 4.6,5.02 4.43,5.11 4.34,5.27 l -2,3.46 C 2.21,8.95 2.27,9.22 2.46,9.37 l 2.11,1.65 C 4.53,11.34 4.5,11.67 4.5,12 c 0,0.33 0.03,0.66 0.07,0.98 l -2.11,1.65 c -0.19,0.15 -0.24,0.42 -0.12,0.64 l 2,3.46 c 0.09,0.16 0.26,0.25 0.44,0.25 0.06,0 0.12,-0.01 0.17,-0.03 l 2.49,-1 c 0.52,0.4 1.08,0.73 1.69,0.98 l 0.38,2.65 C 9.54,21.82 9.75,22 10,22 h 4 c 0.25,0 0.46,-0.18 0.49,-0.42 l 0.38,-2.65 c 0.61,-0.25 1.17,-0.59 1.69,-0.98 l 2.49,1 c 0.06,0.02 0.12,0.03 0.18,0.03 0.17,0 0.34,-0.09 0.43,-0.25 l 2,-3.46 c 0.12,-0.22 0.07,-0.49 -0.12,-0.64 z m -1.98,-1.71 c 0.04,0.31 0.05,0.52 0.05,0.73 0,0.21 -0.02,0.43 -0.05,0.73 l -0.14,1.13 0.89,0.7 1.08,0.84 -0.7,1.21 -1.27,-0.51 -1.04,-0.42 -0.9,0.68 c -0.43,0.32 -0.84,0.56 -1.25,0.73 L 13.06,17.52 12.9,18.65 12.7,20 H 11.3 L 11.11,18.65 10.95,17.52 9.89,17.09 C 9.46,16.91 9.06,16.68 8.66,16.38 L 7.75,15.68 6.69,16.11 5.42,16.62 4.72,15.41 5.8,14.57 6.69,13.87 6.55,12.74 C 6.52,12.43 6.5,12.2 6.5,12 6.5,11.8 6.52,11.57 6.55,11.27 L 6.69,10.14 5.8,9.44 4.72,8.6 5.42,7.39 6.69,7.9 7.73,8.32 8.63,7.64 C 9.06,7.32 9.47,7.08 9.88,6.91 L 10.94,6.48 11.1,5.35 11.3,4 h 1.39 l 0.19,1.35 0.16,1.13 1.06,0.43 c 0.43,0.18 0.83,0.41 1.23,0.71 l 0.91,0.7 1.06,-0.43 1.27,-0.51 0.7,1.21 -1.07,0.85 -0.89,0.7 z"
     id="path4"
     style="display:inline;fill:#aa4400" /><style
     type="text/css"
     id="style1698">
	.st0{fill-rule:evenodd;clip-rule:evenodd;}
</style><g
     id="main"
     transform="matrix(0.34658119,0,0,0.31786369,2.0394158,2.7816696)"
     style="fill:#ff7f2a">
	<g
   id="Group-16"
   transform="translate(-70,-35)"
   style="fill:#ff7f2a">
		<g
   transform="translate(70,34)"
   id="g1707"
   style="fill:#ff7f2a">
			<g
   id="Group-15"
   transform="translate(0,0.83028)"
   style="fill:#ff7f2a">
				
				<path
   id="path1269"
   style="clip-rule:evenodd;fill-rule:evenodd;fill:#ff7f2a"
   class="st0"
   d="M 38,21 H 25.8 l 7.6,8.1 -7.8,8.6 H 38 v 3.8 H 20.5 V 37.7 L 28.3,29.1 20.5,21 V 17.3 H 38 Z" />
			</g>
		</g>
	</g>
</g></svg>
